# xmcd
#
# Track frame offsets:
# 150
# 21255
# 44083
# 64194
#
# Disc length: 1176 seconds
#
# Revision: 1
# Processed by: cddbd v1.5.2PL0 Copyright (c) Steve Scherf et al.
# Submitted via: CedeCatalogueitor 2.6.0.6 http://personales.ya.com/cdcatalogueitor
#
DISCID=35049604
DTITLE=The Last 3 Lines  - Crows
DYEAR=1900
DGENRE=
TTITLE0=Fish Tank
TTITLE1=Crows
TTITLE2=Women and Children First
TTITLE3=Fish Tank "Our Classmates Were Robots Rmx"
EXTD=
EXTT0=
EXTT1=
EXTT2=
EXTT3=
PLAYORDER=
